<?xml-stylesheet type="text/css" href="../css/svg.css" ?>   
<svg width="700" height="390"
	 baseProfile="full"
     xmlns="http://www.w3.org/2000/svg"
     xmlns:xlink="http://www.w3.org/1999/xlink"
     xmlns:ev="http://www.w3.org/2001/xml-events">
    
       <path class="map animate" d="M261.53740321891195,333.26690026485863L256.0457527873422,333.4539373124228L253.8748367936746,329.4340744709779L257.4759943084255,327.9218591938018ZM287.6702603761933,365.17248904529737L285.2156599212035,364.0026979608201L282.619820570343,353.5857116069508L284.9380222942176,346.870441175571L293.48366135523554,350.48567870611504L298.86193324198524,356.5654495889797L289.5167369148462,362.435153664146ZM143.66503475823026,51.79574294876795L138.7545100157088,49.11138386257551L140.4960386117053,42.51066032620952L139.47088505273948,29.617909077219224L138.30187719169973,25.969893998488942L139.25658437380937,19.18287145681063L144.81212097806403,23.84895013779885L154.9176371932954,26.983718021535424L154.39523264434237,37.979864181045855L156.7845466787389,38.46190826067311L157.60025476319416,32.67048732852015L159.99293830583852,30.005176275601457L157.39595890413457,22.52740087200766L159.72992752408877,21.174480697749004L158.58522477064022,15.839692582627322L209.00271488837703,27.666485795313406L217.65726053016866,29.377189494025174L325.23386108084014,43.10121877994766L386.9509245902809,44.81965945140814L405.72955914411807,44.46257452390648L405.57999705013106,39.46855863728172L408.52087999708124,39.938264447071106L411.1788187396005,48.160646369585606L417.80088456759916,49.09607275167093L418.43861771478436,50.55115934090588L425.89836343708043,48.633016948676755L430.1417189474106,50.94176016260246L431.4635433960017,53.83586340152715L434.4153811736371,51.815609488418204L439.0047903256581,55.765016317632785L445.22213786102606,52.41513186192651L446.44711915232637,54.59033442501584L451.9808027416496,53.79492286496236L453.55364562516513,57.56721990162839L449.0545802758057,59.49709532529482L433.498192921824,74.87127236339336L436.91572066466586,74.37431650377016L446.54499217578444,70.00162569774318L448.1291145618152,74.01301412312387L451.25430360005555,74.83746361485453L456.646465912214,70.89437750821355L460.4252756853168,70.20261786032825L466.95811673613525,64.52092031592827L469.1841325720615,70.07664250891924L471.4858775945569,68.48501179942343L476.4504108896736,68.81387850406736L479.6797107700298,72.96052651585103L486.66979784637937,73.29359321374648L490.8497844340222,69.34252699101489L501.24246638326014,67.69030100020348L501.7465738474053,70.6345117381519L508.26911029986206,69.56933051023441L513.0274803769712,76.06180495639819L505.60931300422453,76.13132979241709L505.5531009348844,78.58468041987294L497.7166571012842,76.27504575175249L496.6688926732117,78.20809094886147L490.9949572217698,79.28999358855867L488.06838034399993,84.09834000377884L486.4509132707767,81.49240847998703L483.2909060993923,83.6554037872587L478.85427188337076,91.76048342370927L479.90623535718566,95.81184957984374L482.7834346549198,96.06668689701428L481.801991916096,104.66548496494045L480.18936993922625,108.7300792517998L479.53935685207745,116.148405245552L481.5335007582208,127.90821354083778L481.4743240405836,130.29698902807047L485.3905662997111,138.03374587021244L488.4884174882045,139.05995663371687L492.2599279670727,136.67000142773077L496.71861763936954,127.08874757002104L495.63915450784157,117.53606795508699L492.07611255162556,110.53663550526198L491.6334244339236,105.18140834170265L493.5762907070392,100.90661082077861L494.55646751411456,93.22083205066963L498.46152165775226,91.92726689811866L502.9991827646036,85.63195625357434L503.5092526435887,80.5239519966508L505.70185657482966,79.64301215385433L512.0727171435246,82.54337701793429L518.2049720897463,83.56778346406952L521.5640433234666,92.0788084658144L521.6316028451083,97.13291524800218L517.0399383519754,103.62237761032463L519.8226056279145,107.62109900640166L522.7699394410727,102.45919464615235L526.1304327273831,100.11780155631698L529.8821604962906,103.42751945379143L533.6313377720511,114.14052323604346L533.4533957829025,118.8228938564099L531.2891839103229,118.52189309224684L525.8686710170416,132.68101263854624L535.8997083610341,135.67012783034818L543.7497987900414,133.03617378179763L546.950646685079,129.19391994618763L554.6207855357625,124.1519071930336L561.3359735193123,118.92815621976968L568.8557109269474,110.11253233001582L565.5224647396886,104.13088953418867L571.0208386435644,101.61256055465265L579.9748055024494,101.46085603601614L586.2293614873313,99.55885512834834L592.0367616606643,94.40365572796748L591.7634573724247,89.17250276959669L588.9516843405514,87.475911993213L596.4984232444333,75.69026384191534L601.4892603010915,71.88538322441354L614.3258453047501,68.35767746102476L631.4130416144545,63.57114496479437L634.0941878662995,58.711367312914945L636.3085470119852,56.279501421211194L639.456257476834,48.65046049902196L638.3251271526422,46.61070364852037L638.8109237894762,37.62278162454584L642.3933184975083,25.678626859688507L646.4708607783684,28.262240472069152L651.7187953155599,24.200122388070895L656.8236665251246,26.6374483260131L662.5979226174013,44.50564582078755L666.2028668934311,44.588941971742315L667.15158821761,48.70833889509174L670.5545378725494,49.376339362516546L673.7856735521908,52.958603841226136L667.2968523244419,59.11660429584401L666.077281692023,61.92369470911319L661.9732027041402,62.12582040625182L661.5650288968662,65.18591744388743L657.162662247322,64.10818627416313L657.5745457397484,69.15309494785379L654.837692979134,70.68242081001995L652.1900418343848,75.31870588781135L648.6261290529856,75.95213027455588L648.8617523793716,78.8731207975029L644.9942587518774,86.52846674777572L645.9855342751642,89.89962296874535L647.575742810238,92.34793550239817L646.1176990149182,98.16078317624203L648.7772830279761,97.90514768830883L652.8119916629566,103.00259210877425L648.440087698365,108.7815294492126L646.9247277641377,106.60244393931384L646.4998508047282,106.27665902248395L645.1449451429623,111.15357295450781L641.737647140761,113.16822389234028L631.7721396943334,116.66648918995577L625.4139563548786,122.22732654125821L622.9024895692985,127.0413055266672L620.8388402554201,130.24376657513426L624.5095819664976,131.975771365917L624.594689518825,140.57334569673833L620.0390635035382,152.48718497167863L611.4832354170957,147.0189737737386L611.4105536795989,143.92663822610814L611.1427435793994,147.47104730646754L614.3253537238644,152.2575923268313L618.5264074405533,155.08599558912874L620.0013529941887,159.69150403437197L619.7862764951504,159.7444556985364L619.5711883133522,159.79735988766345L618.0760104507774,166.3153501830568L615.4111567665673,167.624741799881L607.2332274645504,162.96984207910145L607.1727485428836,158.32591827010629L603.6436734390098,159.21701456175515L606.3919076537381,163.75632718640236L604.9627627974847,166.4502383810942L597.8526795848977,165.69298350651775L597.949720358599,162.05647117296724L596.5380597019757,165.39421421722932L609.2548711401344,170.1888686470637L609.1468761358385,179.15810427939994L611.9244335552596,182.65397986506264L615.1209481745067,182.42309005945998L617.510532283987,187.1109015558917L617.1788348817731,187.1894850495105L616.1670712678549,187.35450323991785L615.8352932841294,187.43264190778876L615.7246948759605,187.45866371881073L615.7705413092613,195.65447622623032L621.0245467418438,195.96780482218577L618.0865509582543,204.05485110880232L612.9606065223204,203.91084382857252L613.9355597092392,210.2552599674416L606.0423155140022,219.23919181417818L602.2347161543835,227.70765774417657L596.336371637535,229.38798286062934L587.6602120989552,243.2247606356832L585.0395956846951,248.48575473709838L572.7939133141354,258.7157500428725L575.4063886459066,259.6271926328577L570.3502514091058,272.6763275992589L571.3122227030158,278.17144503013486L575.8567670310957,289.77336641904486L584.6255370705152,302.60636839962433L586.0697144477256,307.6953921089729L591.771939222873,316.2510403989488L598.3041824497445,327.4293616788974L599.498658938515,338.5089516028117L597.8814162352224,349.58761371033154L589.403477095046,351.9300147009732L586.1467557948766,343.33839667254125L580.2440227507063,342.72492313822664L573.4048365236947,330.25607375170813L571.1550820456127,331.5675786256884L565.1189452086812,324.0106915619198L567.5598463192744,317.71015780089283L562.4812479446696,314.8684802565238L562.5446692833389,305.05496193671695L557.2217366750288,301.87072647523706L548.4466671335908,293.129759841825L544.4419490726128,291.421789801616L540.0664470700898,292.2077389628256L534.8008338074839,297.3525091992411L529.6073114282545,298.71103295574903L528.2277018941913,295.87186229544983L514.8871816325632,289.65679050942344L503.69139123098694,291.1824827037035L501.9209036022655,294.1822906626231L498.04442293571856,292.66184495752196L492.33498940801377,293.61468415871985L486.70019827109246,294.0995802471029L478.86772523988384,297.6223354285036L470.9217774105708,295.71988359173025L469.4032529845657,299.8558543858326L476.39422507465,299.05797256055666L477.22000555300997,305.7201771414915L484.3488065725053,308.6596206955237L485.2155865313956,312.58703620743984L475.1567395393663,307.8298438517121L472.04965642495984,311.02162805582293L469.46295078995587,309.94303916081003L464.17055856403925,312.63870292644987L455.2967516574921,305.26166293367277L447.44889541419536,308.9061883811025L436.23791190068124,306.09453738336634L430.5666153790677,306.7933001952625L429.92190948997666,303.4643665175665L426.52913918496733,308.11059769108925L420.6295098928966,309.69576581830546L418.54353381415655,306.8424811562722L415.2998922075833,310.08978426833914L416.86173899117995,312.25146184209757L409.4851147887763,320.5936291819683L401.1478979773836,323.9119510802102L392.6710117654485,330.2256037009737L385.285933762889,345.68496964758015L389.22464148431084,357.9753238732602L387.04228173691405,360.95809668459714L384.3087337574321,358.56909850330715L377.57638660673365,358.15045968517495L366.37247927855987,353.19409892172166L362.24601446603475,344.8523948148223L361.2226468464433,336.9618349032372L357.33308928729645,334.3351927414862L352.41874219505513,327.6877977995756L348.1843386222148,316.7544620707072L339.0493516186764,306.757168374373L328.95758131535143,305.12870591373445L324.78834102645476,306.7885304260271L318.5310960322549,316.886859887079L308.22247794918627,311.4958695888367L302.8342441351396,306.35022669777544L299.50735492989975,293.94528627744756L293.93556662896304,289.65440481952857L281.7999314673377,275.85060569022613L262.67955545532675,273.9595799027772L261.9142799300172,279.926667132882L252.37528967152272,278.8555079750241L229.09382309777865,276.03099533971374L188.90374472176234,253.7032829576276L190.6351913351408,250.806414349261L163.15124873087566,248.11657845038428L161.9209374383823,238.12110690184568L155.73575501694648,229.6242623551301L152.3639461263832,229.0415021748401L151.74508976549544,224.71408105413468L147.5183770582548,223.70321993936204L141.35604162428905,216.99370684009284L132.227213050314,214.46970252227135L130.60740126248993,212.2289552097938L132.55283783181486,204.70897235771912L127.43994176147862,196.04008137619365L123.35515997412114,181.9344333697788L126.13722312025027,179.30319509891063L122.47729834139102,175.83199758482226L120.9257531152117,167.98221716239652L124.81569654884058,165.9490154504441L124.2408072657187,159.76976172633294L118.40087942262352,160.0823962853441L118.60261179716241,156.3335989391145L113.52558148382423,145.98829623487757L115.68370058771723,133.7364336165232L112.15394910742373,126.68667860011578L112.4286195740782,124.1466109248563L117.25618812090147,117.73989376631482L119.4394068885116,111.55828792263128L120.02359699574458,104.03397062665522L118.97798346204758,102.31879181179136L120.56121069851326,95.23111608866884L119.84670039585058,92.04192934233299L127.44936298132751,79.676159956236L134.6082177006227,61.34447631851276L137.7621736326123,49.35098253488354ZM484.7160821787958,89.01853725411092L482.8759275376405,95.98434589449676L481.804425395497,94.59529925452819ZM466.93975363914706,51.64375660514861L461.4442067449013,56.8658565528217L461.2033574045601,55.324962584043874ZM62.370573479223886,337.93107916549275L60.514145533179885,339.39084457691126L60.473300530926316,335.95374624543456L59.4505370520142,333.4324650904733L60.93695346717412,331.6272614791213L58.07169997245482,325.865413966622L57.80132301419314,327.4026093559243L54.229077890262644,328.74918693042156L51.19498208552056,328.4490992663778L49.17091261947836,324.82854247380817L46.33062854280042,322.15707583047924L48.857612295038,319.8110235114657L46.003352662661584,317.56146377938063L45.090693923928676,315.71502049142197L46.29632964824902,309.3550693034394L48.90801229527341,306.12246249989715L50.054615593477706,305.56237721473514L49.87646423378888,303.6992437211749L51.09605054937933,301.33467943728425L52.817371046113244,300.4163977385459L55.638359876541536,302.50903024539485L56.69761086746414,302.25953240249413L59.71951525079646,298.8612563441937L60.12230825748076,299.3895973158391L63.80430248437865,298.7952117728995L65.1611975082861,296.92837374939757L64.57722059199475,292.84910456600977L63.596507509170635,291.5903537547588L65.25562576220936,288.96064876748125L63.861646832569505,287.1420083087405L63.21997622533762,288.32815937792014L60.61149755748629,288.85901768179866L58.179679616108245,291.8545024825295L55.50190326690022,289.88282640117757L52.720555735357706,289.5878763970633L50.2899177551926,290.53176024947203L46.174979639394714,288.93527354339557L45.89739118933855,286.45774793094864L44.89418398435497,285.54153586696265L45.449101258053254,282.5451448392729L42.689491323953156,281.8213770321636L40.79521137898092,280.26471683790845L43.46896245024948,278.0386931731106L48.59532337453622,275.80545773189203L49.041462582043266,275.07364688287964L52.61510963871728,273.4738815466447L55.20354613091218,273.17276858297475L55.742001332339974,273.9300678438158L55.046217941826704,276.41105486287194L55.8499806514499,277.5686322145472L58.854107653039,277.41477668715953L59.13091320411164,278.3234130324795L61.89174960757316,278.2888292436064L62.950849750331784,276.2661365040793L64.3993720859706,276.5081546095516L65.27897602257968,275.3687300937992L67.2418990964929,275.2564168342445L66.9403597401726,273.5919118667207L64.28362337242113,273.1788146331795L63.069476694299375,274.0927336851047L61.8482861504921,272.4834816264559L62.0244639197826,269.84614860438677L60.12671784471665,270.2956565090947L56.114462525043336,269.12848652438674L55.39169720612721,265.5490859976067L51.50825352975647,261.27159985481273L48.84075864821136,258.9502868504501L49.472201788301874,254.28797169399763L55.1381395756407,254.2728628427709L57.49971382190662,252.71970300748808L58.887064161374106,250.84479211687312L59.48671823142085,247.7068624369955L62.528121187237645,243.56866390482048L65.26577501685004,243.46098388352175L68.89175463343226,239.7046771146562L71.59994095075986,239.75508274388812L73.8000886194258,239.15379060904843L76.52878183590998,235.48922385302694L79.73791687549532,236.22711043041318L80.0907618788419,238.96979249847675L80.75434856839962,236.9534034570255L82.64114593922841,237.35470851322714L83.91730960404304,239.17883164872012L84.60813217444962,238.19211023996434L86.46206471694475,237.71776371138856L88.6491151033448,237.94377086548843L88.68096166864943,239.7528752610633L90.83653404193183,240.17153784704738L92.47834956719879,241.48285922487833L93.55380132733026,240.27735515739118L97.04644850391898,239.58533164612425L100.78847223491195,240.31368405177523L102.44864286647027,241.20503384200117L107.64431932867461,240.4988789124942L110.39985228651246,241.5207577708387L114.77444492671935,239.24258730958934L116.86765610123985,239.60584296700938L118.09225496064798,240.5822733735572L120.98418539248057,241.5209388779657L122.04741183285537,241.1677227245243L143.5745910737403,314.2151940141524L145.66886063985356,313.5447317101553L147.74032223950377,313.94214060031203L148.53942517190637,312.38646490986247L150.84532547577373,311.55629698423235L151.06561221856947,313.74281831338067L159.498350544371,318.24023162763206L160.90714467894566,320.6578805092234L163.66521532633664,317.42746030617957L163.35140564501936,313.6972518334807L166.11404525800714,310.90324519443453L168.5835153433145,312.0127682962705L169.69465769845382,314.11330265306054L172.06479140264975,314.50567458739835L173.70447031221696,316.2029790661356L178.1556494323391,317.8863488303972L189.84546314376408,327.62061021203516L194.5160619248767,329.1111008453747L199.43934693180125,329.2888507670614L200.39735437620536,332.1560419926477L202.86057735806833,335.24517683208524L202.63409965330612,338.72708653847917L200.57434070657095,340.6012847425014L197.6023419308083,333.91115629003673L195.37297813197122,332.53981626497807L192.34077168368918,333.97029637193185L190.910955080292,331.13665394037486L184.99326919165225,327.8420168266496L181.7380319658352,327.78531536054453L181.7157173065026,326.30507158021607L179.2624796664605,323.42719018523377L176.04131286760875,321.0912663734437L173.1474730415498,320.6413833256582L171.08631208772547,317.6264107097344L170.81276021139865,319.3495619275178L172.31335628416514,322.3113154796089L168.59152517164335,321.6350252531891L166.47011380294907,319.0410146718423L166.2900141893524,320.07164386665835L168.0975733872252,322.60269583324714L165.73195779628298,324.2150852307911L161.12050841829245,323.267996637834L158.95028850267488,321.34030808787713L149.91223193856075,318.888366564011L150.92540642078663,317.0814557861998L149.90984852387265,315.87214735294936L147.29186160044677,318.3036355874477L137.26544646938873,317.6330242107142L132.92986826555153,319.7662546460113L129.1946870156256,318.23664703975896L128.11634060944854,315.8421076042403L126.97171007287234,317.9996142760132L123.95670709816687,317.8289478584925L123.92724512950602,315.90203772845626L120.70448720743282,315.57014652787035L120.16269046455076,314.3655311821455L115.8604441163142,316.38082686580685L114.85451679385204,318.31038027019633L116.12491969265025,319.4329133095335L114.06017317860808,324.2941511420227L111.32035887221272,323.9693044578063L108.36822290319594,328.4712319864282L102.43770112078258,332.31814120512837L101.28661572852909,331.5514878359974L101.562283280157,325.32948197768L102.55344489139424,323.68765891662474L102.82406556623778,320.87987763595163L102.08353176757224,319.4175180187753L105.53621377473446,316.47178571763254L107.1969551907078,317.22477460650407L106.85512493570138,315.234928466689L104.66610421305381,314.47082922562566L100.56708039361038,318.05217162019653L97.73902086822764,324.13855952482396L97.67013912073222,326.60936698272104L95.81757555865255,329.09537790025473L94.75498259500772,327.9936800080823L93.83250402818237,331.01684471517586L92.23136886001474,331.6375225885326L92.8837780997656,334.03679971381524L95.49325959329371,334.56637963646705L95.02520014631259,337.5025940551614L93.05547513419918,338.9355774022362L92.35856774261785,342.3140683845847L89.3773846989572,343.02666052152614L88.37072306383504,345.466372794825L87.06532959311647,345.0826723482127L86.60105249238035,347.0908623297696L85.30690513052093,346.9561574663878L83.1768023305787,349.2234963307913L83.47615431645177,351.3982127285486L82.26868000085491,351.4592873855952L79.28927828235982,355.1071674496842L77.9083812524269,354.6416096664299L77.54188771201481,356.4120024100534L75.08978071198712,356.65168049196393L75.08136475617569,360.3380181886497L68.7191639610594,361.57650144076587L64.89124645009699,364.7733539352442L62.204303500551944,365.6336001155556L60.123055031791324,365.1163897230925L57.58855515431985,368.1672127369079L55.86524850028144,366.99122798625535L55.157272446670945,368.7185864448934L53.11918270768988,367.04277549655495L56.392598744334336,364.6983738748897L59.84002563438433,361.1679383012711L62.54490659776573,360.2431244068457L65.409631308807,360.9237765753502L66.33592838809747,358.1453146305218L68.70589291737008,355.96329310785933L73.77518638440272,352.3062041348763L75.51882571280136,349.435307440983L78.12494576215013,347.38201100498947L78.42510556341173,340.58621964244924L80.34807320557705,337.4578655126104L80.13198580412372,336.56480703794693L75.60394532661324,338.91527221852795L73.33865675027933,336.7772911861239L73.48777870535325,339.90911895898927L72.02312176512575,340.4918958938293L70.38848293772983,337.59096314847164L68.35278611869643,337.6867911307512L66.63780433297966,335.322105822809ZM43.46128173186604,323.1143395889517L45.10172167637735,324.20913764948824L45.124837313792625,327.4440870595452L43.01434183642805,328.42156766888314L39.02956869390394,326.0807842717909L41.92564095779303,323.2269934474443ZM48.249550103272895,371.14269296493217L47.171093756331274,372.4014011944461L44.92022286341068,372.41596341921814L44.571173523410664,371.06100743292L46.93361075259416,368.52769818594885L51.46446359074131,367.7301893886745L52.12734452893187,370.163691181666L50.978100288643965,371.2597220929662ZM30.130190710205795,378.59768116601157L27.486525821819143,380.38296219740664L27.42131517451493,378.4388403621559ZM27.771471139518006,296.1089491722128L26.28316912205711,296.85467247400607L25.13602725294423,294.9962465077772L26.185870136560254,293.6594282700669L28.564370241458008,295.06769108457837L30.933208886011073,294.45059092717884L31.42263273130058,296.2617887913876L34.49561449689181,298.27100432175996L32.32980004998808,300.86499182945795L32.00615166671448,299.34276729405303L28.636091778100344,296.0357359268941ZM123.4644576389887,318.54898451510724L121.74110228934238,320.2243847393818L121.41910164011199,318.2297414118802ZM101.6978058700462,339.0267670747055L101.9414303762538,340.68356797512115L99.06110889299286,341.70464051940104L99.19036120665395,338.3652932862094ZM179.73608752104576,327.55146398328463L178.74806809530446,329.9034516636155L173.1034637334608,322.22975016365626L176.17149490097216,321.40900247411656L178.43075181817267,323.6806109267549ZM169.82714038411962,325.38992467703173L174.4225241622188,325.6770479492522L175.67206076636734,327.58117407540345L172.26860042116874,327.94744827022953L171.7519355638134,329.93701266459516L169.0152001435133,327.4845927690587L167.9290561502796,325.0958461510942L169.3244507763283,323.0554186898894L173.48398541050378,323.55634006698824L174.2219900157079,325.2949633959996L173.0719526990029,325.9784977661976ZM97.15622722053826,349.4529039806674L96.04578602108566,351.9740565904197L94.13127114748508,353.14004662531545L93.88367336531086,351.3970888147391L92.23686994450459,351.2792599390323L91.07287830910141,347.80191230567556L95.47494226566644,343.5825775433277L97.41518158710151,344.25241704570186L96.96116563631244,342.4870253253722L101.19361965213845,343.6237950823348L101.51365741661738,346.7829211478269L99.5030507282952,348.30312679228115L98.00775549668452,347.7712094299581ZM180.33548281187387,337.3528133355122L175.33392341544462,333.42972178287965L174.21304381419438,331.05885159050496L172.56325352305288,329.9943594574484L173.4648091442943,327.9899747981932L176.30074576292228,329.40859655910424L178.80182000041498,333.0266856849555ZM184.427928340606,328.4126170137144L186.03707569820827,330.84735989037375L185.64224823828374,332.5565074825891L183.6731035926981,333.48302550056326L180.7350637233293,328.994602976019ZM183.49325562215148,336.76053170550085L181.32670547596805,335.2414448450758L181.5339542292461,333.9989406301581L179.71543843630292,332.6576580262429L179.57278231860298,330.8177837077896L182.34346494098955,331.15829198470556L182.35795036072722,333.520116912116ZM191.66098166529673,338.49100133865664L193.64464305374156,340.3287181745554L194.70028449077063,339.57610086692137L196.3522361747901,343.618134970719L191.0161577966594,340.78165803939834L189.18973967534697,341.4744477374568L187.11299299877732,338.4494177908666L186.22483979709267,335.0102681637943L190.52105470739673,336.138662662898ZM195.93879993352195,338.17028863245673L194.54865727007243,337.5787298524333L194.09750632937136,335.291798173969L195.31450170008017,332.7556722893884L197.6454148557699,334.45843259994416L198.30138000573473,338.16736695258805Z" />
     </svg>